<svg width="738" height="738" viewBox="0 0 738 738" fill="none" xmlns="http://www.w3.org/2000/svg">
<g clip-path="url(#clip0_251_3779)">
<path d="M0 30C0 13.4315 13.4315 0 30 0H363V738H30C13.4315 738 0 724.569 0 708V30Z" fill="#696969"/>
<path d="M43.9812 563.464L43.9812 563.238L45.4215 562.452L148.835 506.062L252.07 449.768L362.532 389.535L365.878 387.71L365.878 391.668L365.878 439.283L365.878 440.988L364.436 441.772L255.417 501.232L255.416 666.841L255.416 669.622L255.392 669.623L255.393 718.823L255.393 721.603L252.837 721.603L149.837 721.603L147.607 721.603L147.607 719.177L147.607 669.621L147.395 669.621L147.395 667.196L147.395 560.146L105.547 582.97L105.547 583.169L104.052 583.985L19.9532 629.851L16.607 631.676L16.6071 627.717L16.6072 580.095L16.607 578.391L18.0465 577.606L43.9812 563.464Z" fill="#FF8425" stroke="black" stroke-width="5"/>
<path fill-rule="evenodd" clip-rule="evenodd" d="M150 428L253 372.056V372.043V372L150 427.941V427.973V428Z" fill="black"/>
<path fill-rule="evenodd" clip-rule="evenodd" d="M467 383L570 327V327.024L467 383Z" fill="black"/>
<path fill-rule="evenodd" clip-rule="evenodd" d="M149.788 427.737L253.023 371.444L253.023 371.4L149.788 427.705L149.788 427.737Z" fill="black"/>
<path d="M464.814 405.35L568.049 349.056L638.249 310.778L644.941 307.128L644.941 315.045L644.941 359.816L644.941 363.222L642.062 364.792L571.862 403.072L468.626 459.365L397.64 498.073L390.949 501.723L390.949 493.806L390.948 449.035L390.949 445.629L393.828 444.059L464.814 405.35Z" fill="#FF5500" stroke="black" stroke-width="10"/>
<path d="M147.882 349.04L251.117 292.746L324.175 252.909L330.867 249.259L330.867 257.176L330.867 304.61L330.867 308.016L327.987 309.587L254.93 349.425L151.695 405.718L83.5593 442.871L76.8677 446.521L76.8675 438.604L76.8675 391.17L76.8669 387.764L79.7467 386.193L147.882 349.04Z" fill="#8AC544" stroke="black" stroke-width="10"/>
<path d="M365.5 358.523L364.201 359.234L254.065 419.577L151.136 475.972L83.2012 513.192L79.5 515.221V463.515L80.7988 462.804L148.732 425.573L251.663 369.164L344.346 318.372V318.371L361.799 308.808L365.5 306.779V358.523Z" fill="#FF5500" stroke="black" stroke-width="5"/>
<path d="M258 14V273.756L255.394 275.177L152.381 331.329L84.3936 368.39L77 372.42V320.057L79.6064 318.636L144.988 282.988V69H145V14H258Z" fill="#8AC544" stroke="black" stroke-width="10"/>
<path d="M645 433.47L642.405 434.894L574.977 471.887V559H575V724H462V478.936L464.596 477.512L567.571 421.026L637.596 382.616L645 378.555V433.47Z" fill="#FF8425" stroke="black" stroke-width="10"/>
<path d="M465.767 333.242L569.002 276.949L639.203 238.666L642.549 236.842L642.549 240.8L642.549 288.384L642.548 290.087L641.109 290.872L570.909 329.161L467.674 385.47L406.344 418.921L396.687 424.188L364.438 441.771L361.092 443.596L361.092 439.638L361.093 392.024L361.093 390.321L362.532 389.536L465.767 333.242Z" fill="#FF8425" stroke="black" stroke-width="5"/>
<path d="M572.5 16.5V176.5H572.082V194.631L670.806 140.961L697.806 126.273L717.806 115.401L721.5 113.393V164.946L720.194 165.656L700.194 176.532L678.209 188.483L678.205 188.486L673.189 191.199L673.188 191.198L570.776 246.895H570.775L467.485 303.046L364.194 359.196L360.5 361.204V309.671L361.806 308.961L463.791 253.51V63.4883L464 18.9883L464.012 16.5H572.5Z" fill="#8AC544" stroke="black" stroke-width="5"/>
<path d="M228.419 561.155C228.419 563.202 213.327 559.672 194.709 559.672C176.092 559.672 161 563.202 161 561.155C161 559.108 176.092 553 194.709 553C213.327 553 228.419 559.108 228.419 561.155Z" fill="#C93A0D"/>
<path d="M541.419 623.155C541.419 625.202 526.327 621.672 507.709 621.672C489.092 621.672 474 625.202 474 623.155C474 621.108 489.092 615 507.709 615C526.327 615 541.419 621.108 541.419 623.155Z" fill="#C93A0D"/>
<path d="M559.419 542.155C559.419 544.202 544.327 540.672 525.709 540.672C507.092 540.672 492 544.202 492 542.155C492 540.108 507.092 534 525.709 534C544.327 534 559.419 540.108 559.419 542.155Z" fill="#C93A0D"/>
<path d="M559.419 689.155C559.419 691.202 544.327 687.672 525.709 687.672C507.092 687.672 492 691.202 492 689.155C492 687.108 507.092 681 525.709 681C544.327 681 559.419 687.108 559.419 689.155Z" fill="#C93A0D"/>
<path d="M237.419 693.155C237.419 695.202 222.327 691.672 203.709 691.672C185.092 691.672 170 695.202 170 693.155C170 691.108 185.092 685 203.709 685C222.327 685 237.419 691.108 237.419 693.155Z" fill="#C93A0D"/>
<path d="M245.419 519.155C245.419 521.202 230.327 517.672 211.709 517.672C193.092 517.672 178 521.202 178 519.155C178 517.108 193.092 511 211.709 511C230.327 511 245.419 517.108 245.419 519.155Z" fill="#C93A0D"/>
<path d="M558.885 608.664C558.885 609.878 552.547 607.565 547.893 607.565C543.239 607.565 538 609.878 538 608.664C538 607.45 543.239 605 547.893 605C552.547 605 558.885 607.45 558.885 608.664Z" fill="#C93A0D"/>
<path d="M561.885 518.664C561.885 519.878 555.547 517.565 550.893 517.565C546.239 517.565 541 519.878 541 518.664C541 517.45 546.239 515 550.893 515C555.547 515 561.885 517.45 561.885 518.664Z" fill="#C93A0D"/>
<path d="M558.885 482.664C558.885 483.878 552.547 481.565 547.893 481.565C543.239 481.565 538 483.878 538 482.664C538 481.45 543.239 479 547.893 479C552.547 479 558.885 481.45 558.885 482.664Z" fill="#C93A0D"/>
<path d="M610.885 435.664C610.885 436.878 604.547 434.565 599.893 434.565C595.239 434.565 590 436.878 590 435.664C590 434.45 595.239 432 599.893 432C604.547 432 610.885 434.45 610.885 435.664Z" fill="#C93A0D"/>
<path d="M491.885 503.664C491.885 504.878 485.547 502.565 480.893 502.565C476.239 502.565 471 504.878 471 503.664C471 502.45 476.239 500 480.893 500C485.547 500 491.885 502.45 491.885 503.664Z" fill="#C93A0D"/>
<path d="M415.885 382.664C415.885 383.878 409.547 381.565 404.893 381.565C400.239 381.565 395 383.878 395 382.664C395 381.45 400.239 379 404.893 379C409.547 379 415.885 381.45 415.885 382.664Z" fill="#C93A0D"/>
<path d="M515.885 347.664C515.885 348.878 509.547 346.565 504.893 346.565C500.239 346.565 495 348.878 495 347.664C495 346.45 500.239 344 504.893 344C509.547 344 515.885 346.45 515.885 347.664Z" fill="#C93A0D"/>
<path d="M610.885 277.664C610.885 278.878 604.547 276.565 599.893 276.565C595.239 276.565 590 278.878 590 277.664C590 276.45 595.239 274 599.893 274C604.547 274 610.885 276.45 610.885 277.664Z" fill="#C93A0D"/>
<path d="M494.885 672.664C494.885 673.878 488.547 671.565 483.893 671.565C479.239 671.565 474 673.878 474 672.664C474 671.45 479.239 669 483.893 669C488.547 669 494.885 671.45 494.885 672.664Z" fill="#C93A0D"/>
<path d="M509.885 709.664C509.885 710.878 503.547 708.565 498.893 708.565C494.239 708.565 489 710.878 489 709.664C489 708.45 494.239 706 498.893 706C503.547 706 509.885 708.45 509.885 709.664Z" fill="#C93A0D"/>
<path d="M188.885 711.664C188.885 712.878 182.547 710.565 177.893 710.565C173.239 710.565 168 712.878 168 711.664C168 710.45 173.239 708 177.893 708C182.547 708 188.885 710.45 188.885 711.664Z" fill="#C93A0D"/>
<path d="M177.885 674.664C177.885 675.878 171.547 673.565 166.893 673.565C162.239 673.565 157 675.878 157 674.664C157 673.45 162.239 671 166.893 671C171.547 671 177.885 673.45 177.885 674.664Z" fill="#C93A0D"/>
<path d="M238.885 627.664C238.885 628.878 232.547 626.565 227.893 626.565C223.239 626.565 218 628.878 218 627.664C218 626.45 223.239 624 227.893 624C232.547 624 238.885 626.45 238.885 627.664Z" fill="#C93A0D"/>
<path d="M236.885 544.664C236.885 545.878 230.547 543.565 225.893 543.565C221.239 543.565 216 545.878 216 544.664C216 543.45 221.239 541 225.893 541C230.547 541 236.885 543.45 236.885 544.664Z" fill="#C93A0D"/>
<path d="M259.885 471.664C259.885 472.878 253.547 470.565 248.893 470.565C244.239 470.565 239 472.878 239 471.664C239 470.45 244.239 468 248.893 468C253.547 468 259.885 470.45 259.885 471.664Z" fill="#C93A0D"/>
<path d="M346.885 438.664C346.885 439.878 340.547 437.565 335.893 437.565C331.239 437.565 326 439.878 326 438.664C326 437.45 331.239 435 335.893 435C340.547 435 346.885 437.45 346.885 438.664Z" fill="#C93A0D"/>
<path d="M170.885 533.664C170.885 534.878 164.547 532.565 159.893 532.565C155.239 532.565 150 534.878 150 533.664C150 532.45 155.239 530 159.893 530C164.547 530 170.885 532.45 170.885 533.664Z" fill="#C93A0D"/>
<path d="M92.8852 575.664C92.8852 576.878 86.5473 574.565 81.893 574.565C77.2387 574.565 72 576.878 72 575.664C72 574.45 77.2387 572 81.893 572C86.5473 572 92.8852 574.45 92.8852 575.664Z" fill="#C93A0D"/>
<path d="M46.8852 593.664C46.8852 594.878 40.5473 592.565 35.893 592.565C31.2387 592.565 26 594.878 26 593.664C26 592.45 31.2387 590 35.893 590C40.5473 590 46.8852 592.45 46.8852 593.664Z" fill="#C93A0D"/>
<path fill-rule="evenodd" clip-rule="evenodd" d="M672 143.157L699 128.47L719 117.598V163.46L699 174.336L677.015 186.287L672 189L569.582 244.698L516 273.827V19H570V174H569.582V198.836L672 143.157Z" fill="black" fill-opacity="0.3"/>
<path fill-rule="evenodd" clip-rule="evenodd" d="M202 19H253V74V174V229.793V270.786L202 298.587V19Z" fill="black" fill-opacity="0.3"/>
<circle cx="552.198" cy="653.198" r="2.19845" fill="#C93A0D"/>
<circle cx="479.198" cy="638.198" r="2.19845" fill="#C93A0D"/>
<circle cx="533.198" cy="593.198" r="2.19845" fill="#C93A0D"/>
<circle cx="481.198" cy="527.198" r="2.19845" fill="#C93A0D"/>
<circle cx="524.198" cy="483.198" r="2.19845" fill="#C93A0D"/>
<circle cx="623.198" cy="427.198" r="2.19845" fill="#C93A0D"/>
<circle cx="621.198" cy="287.198" r="2.19845" fill="#C93A0D"/>
<circle cx="477.198" cy="371.198" r="2.19845" fill="#C93A0D"/>
<circle cx="481.198" cy="338.198" r="2.19845" fill="#C93A0D"/>
<circle cx="418.198" cy="392.198" r="2.19845" fill="#C93A0D"/>
<circle cx="356.198" cy="433.198" r="2.19845" fill="#C93A0D"/>
<circle cx="266.198" cy="479.198" r="2.19845" fill="#C93A0D"/>
<circle cx="224.198" cy="479.198" r="2.19845" fill="#C93A0D"/>
<circle cx="163.198" cy="518.198" r="2.19845" fill="#C93A0D"/>
<circle cx="243.198" cy="536.198" r="2.19845" fill="#C93A0D"/>
<circle cx="165.198" cy="576.198" r="2.19845" fill="#C93A0D"/>
<circle cx="58.1984" cy="570.198" r="2.19845" fill="#C93A0D"/>
<circle cx="49.1984" cy="601.198" r="2.19845" fill="#C93A0D"/>
<circle cx="206.198" cy="623.198" r="2.19845" fill="#C93A0D"/>
<circle cx="180.198" cy="665.198" r="2.19845" fill="#C93A0D"/>
<circle cx="235.198" cy="702.198" r="2.19845" fill="#C93A0D"/>
<path d="M580 476.5V719H457V704.5C457 704.5 483 710.5 536.5 695.5C590 680.5 528.5 499 552 476.5C575.5 454 650 413 650 413V436.5L580 476.5Z" fill="black" fill-opacity="0.1"/>
<path d="M227 503C275 477.5 373.5 441 436 388C498.5 335 645 273 645 273V291.5L258 503V719H145V704C145 704 186.827 689.694 214 685C284.216 672.87 179 528.5 227 503Z" fill="black" fill-opacity="0.1"/>
<path d="M157.5 589C160.5 575 173.5 588.5 172.5 602.5C171.5 616.5 161.5 670 157.5 648.5C153.5 627 154.5 603 157.5 589Z" fill="white" fill-opacity="0.5"/>
<path d="M575.766 281.291C589.325 276.693 549.034 306.684 536.5 313C523.966 319.315 508.26 326.235 524.673 311.783C541.085 297.33 562.206 285.89 575.766 281.291Z" fill="white" fill-opacity="0.5"/>
<path d="M473.638 532.5C473.639 511.001 484.5 562.001 483.5 576.001C482.5 590.001 473.638 624.309 473.638 603.405C473.638 582.5 473.638 554 473.638 532.5Z" fill="white" fill-opacity="0.5"/>
<path d="M212 479.5C235.5 466.5 203 486.501 196.5 496.001C190 505.5 182 495.452 154.5 513.501C127 531.549 113 531.604 101.5 548C90 564.397 78.0001 557.5 61.8539 562.581C45.7077 567.661 138 518.001 138 518.001C138 518.001 188.5 492.501 212 479.5Z" fill="white" fill-opacity="0.5"/>
<path d="M154 34.9998C154 34.9998 170 0.999557 165 61.4998C160 122 160 151 160 204.5C160 258 154 226 154 226V34.9998Z" fill="#D9D9D9"/>
<path d="M470 27.9999C470 27.9999 513.701 23.6119 502 27.9999C494 31 480.223 35.6402 484.5 50C491.5 73.5 477.5 108.5 473.5 155.5C469.5 202.5 470 27.9999 470 27.9999Z" fill="white" fill-opacity="0.5"/>
<path d="M202 21L206 296.5L196.5 301.5L202 21Z" fill="black"/>
<path d="M516 19L518.5 272.5L513 275.5L516 19Z" fill="black"/>
</g>
<defs>
<clipPath id="clip0_251_3779">
<rect width="738" height="738" rx="30" fill="white"/>
</clipPath>
</defs>
</svg>
